<mxfile host="Electron" modified="2023-04-09T22:52:32.795Z" agent="Mozilla/5.0 (Macintosh; Intel Mac OS X 10_15_7) AppleWebKit/537.36 (KHTML, like Gecko) draw.io/21.1.2 Chrome/106.0.5249.199 Electron/21.4.3 Safari/537.36" etag="YUH2EJ7AnARNgmO1zehU" version="21.1.2" type="device">
  <diagram name="fmg-single" id="EMH9KgeWkx0thbAno_uH">
    <mxGraphModel dx="1114" dy="924" grid="1" gridSize="10" guides="1" tooltips="1" connect="1" arrows="1" fold="1" page="1" pageScale="1" pageWidth="1169" pageHeight="827" math="0" shadow="0">
      <root>
        <mxCell id="qR9BJTGGLoXFY06QcplL-0" />
        <mxCell id="qR9BJTGGLoXFY06QcplL-1" parent="qR9BJTGGLoXFY06QcplL-0" />
        <mxCell id="qR9BJTGGLoXFY06QcplL-4" style="vsdxID=7;fillColor=#ffffff;gradientColor=none;fillOpacity=0;strokeOpacity=0;shape=stencil(pZPRDoIgFIafhlt35Cy1y2b2Hi4xWSYOteztg7EMNXVMrg7w/4fv3zgE46ZIa0YoNK0Ud/biWVsQPBNKeVUwyVtVEUwIxrmQ7CZFV2VmX6daqauHeOoOvfGBdlB427uLEZa8soToReGy9tpJ09Uf1MHRXl+vP3q2pxtyOpbjjAVnMHDaZj94QbQHX/lD+xrd4izZF+ONef8kBKd44JQGnOBhF/nqp5pgwyomrGJN/4uqfxOS87I0AzagqGI6UerITCMmHw==);spacingTop=-3;spacingBottom=-3;spacingLeft=-3;spacingRight=-3;labelBackgroundColor=none;rounded=0;html=1;whiteSpace=wrap;" parent="qR9BJTGGLoXFY06QcplL-1" vertex="1">
          <mxGeometry x="193" y="101" width="918" height="626" as="geometry" />
        </mxCell>
        <mxCell id="3usOkMj8N7TbXHjgFwUk-4" value="" style="rounded=1;whiteSpace=wrap;html=1;sketch=0;fontSize=10;strokeColor=#007fff;fillColor=#FFFFFF;gradientColor=none;gradientDirection=south;absoluteArcSize=1;arcSize=4;fontFamily=Helvetica;" parent="qR9BJTGGLoXFY06QcplL-1" vertex="1">
          <mxGeometry x="201" y="80" width="859.9999999999999" height="600" as="geometry" />
        </mxCell>
        <mxCell id="3usOkMj8N7TbXHjgFwUk-13" value="&lt;span style=&quot;font-size: 13px;&quot;&gt;Virtual Network&amp;nbsp;&lt;/span&gt;&lt;br style=&quot;font-size: 13px;&quot;&gt;&lt;span style=&quot;font-size: 13px;&quot;&gt;172.16.136.0/22&amp;nbsp;&lt;/span&gt;" style="text;html=1;strokeColor=none;fillColor=none;align=right;verticalAlign=middle;whiteSpace=wrap;rounded=0;sketch=0;fontSize=4;labelPosition=center;verticalLabelPosition=middle;horizontal=1;fontFamily=Helvetica;" parent="qR9BJTGGLoXFY06QcplL-1" vertex="1">
          <mxGeometry x="222.5" y="630" width="766.83" height="50" as="geometry" />
        </mxCell>
        <mxCell id="3usOkMj8N7TbXHjgFwUk-14" value="" style="aspect=fixed;html=1;points=[];align=center;image;fontSize=12;image=img/lib/azure2/networking/Virtual_Networks.svg;rounded=1;sketch=0;strokeColor=#007fff;fillColor=#FFFFFF;gradientColor=none;gradientDirection=south;fontFamily=Helvetica;" parent="qR9BJTGGLoXFY06QcplL-1" vertex="1">
          <mxGeometry x="989.3333333333333" y="640" width="57.548333333333325" height="34.32833333333333" as="geometry" />
        </mxCell>
        <mxCell id="3usOkMj8N7TbXHjgFwUk-26" value="" style="vsdxID=12;fillColor=#f0f0f0;gradientColor=none;shape=stencil(hZNRcoMgEIZPwysDrJjw2EmTC/QETqSVqdUMMa3p6UtcNIAk9Qn+/Ve+XVgCu3NTnTQR7DzY/lP/mHpoCLwSIUzXaGsGtyKwJ7B7763+sP2lq3F/qpxTsEnRNebwm1uwyh7fzK9GjVHgG4kBzPzqv28njj6OoevsVsUkHNB7vFg089g9b2nBVPCVJcZHMcfLjc8Q0Q9G8MRUFt4AoWE6nr04gtZ0Aa3a0kLGxM9wlaIgEuSY0DmUShAfFQXrFMi1Lccd5CwKk/+wLyl3SW5X/EuFXuIsaXLYNIg9j3iDe8kkZN7F/aJ5ShHf/FWsa4HYAdkOZSifv123mIYEx8e0Lc5YGE+Hykk4kLD/Aw==);strokeColor=#bfbfbf;spacingTop=-3;spacingBottom=-3;spacingLeft=-3;spacingRight=-3;labelBackgroundColor=none;rounded=1;html=1;whiteSpace=wrap;" parent="qR9BJTGGLoXFY06QcplL-1" vertex="1">
          <mxGeometry x="260" y="119" width="730" height="490" as="geometry" />
        </mxCell>
        <mxCell id="3usOkMj8N7TbXHjgFwUk-31" value=".4" style="text;html=1;strokeColor=none;fillColor=none;align=center;verticalAlign=middle;whiteSpace=wrap;rounded=0;fontSize=13;movable=1;resizable=1;rotatable=1;deletable=1;editable=1;connectable=1;direction=east;container=0;" parent="qR9BJTGGLoXFY06QcplL-1" vertex="1">
          <mxGeometry x="562.26" y="333.5" width="24" height="30" as="geometry" />
        </mxCell>
        <mxCell id="6b_MJkNo4GDeTMmPDyDw-6" style="edgeStyle=orthogonalEdgeStyle;rounded=0;orthogonalLoop=1;jettySize=auto;html=1;" edge="1" parent="qR9BJTGGLoXFY06QcplL-1" source="3usOkMj8N7TbXHjgFwUk-54" target="3usOkMj8N7TbXHjgFwUk-30">
          <mxGeometry relative="1" as="geometry" />
        </mxCell>
        <mxCell id="3usOkMj8N7TbXHjgFwUk-54" value="&lt;font color=&quot;#000000&quot;&gt;&lt;font style=&quot;font-size: 14px;&quot;&gt;Public IP&lt;/font&gt;&lt;br&gt;FortiManager&lt;br&gt;(optional)&lt;br&gt;&lt;/font&gt;" style="aspect=fixed;html=1;points=[];align=center;image;fontSize=12;image=img/lib/azure2/networking/Public_IP_Addresses.svg;rounded=1;sketch=0;strokeColor=#007fff;fillColor=#FFFFFF;gradientColor=none;gradientDirection=south;fontFamily=Helvetica;fontColor=#999999;" parent="qR9BJTGGLoXFY06QcplL-1" vertex="1">
          <mxGeometry x="109" y="363.50000000000006" width="65" height="52" as="geometry" />
        </mxCell>
        <mxCell id="3usOkMj8N7TbXHjgFwUk-29" value="&lt;span style=&quot;&quot;&gt;&amp;nbsp;172.16.137.0/24&lt;/span&gt;" style="text;html=1;strokeColor=none;fillColor=none;align=left;verticalAlign=middle;whiteSpace=wrap;rounded=0;fontFamily=Helvetica;fontSize=10;" parent="qR9BJTGGLoXFY06QcplL-1" vertex="1">
          <mxGeometry x="900" y="579.9989552238806" width="90" height="27.791044776119403" as="geometry" />
        </mxCell>
        <mxCell id="3usOkMj8N7TbXHjgFwUk-28" value="&lt;p style=&quot;align:center;margin-left:0;margin-right:0;margin-top:0px;margin-bottom:0px;text-indent:0;valign:middle;direction:ltr;&quot;&gt;&lt;font style=&quot;font-size:9px;font-family:Arial;color:#000000;direction:ltr;letter-spacing:0px;line-height:100%;opacity:1&quot;&gt;Protected Subnet&lt;/font&gt;&lt;/p&gt;" style="text;vsdxID=11;fillColor=none;gradientColor=none;strokeColor=none;spacingTop=-3;spacingBottom=-3;spacingLeft=-3;spacingRight=-3;labelBackgroundColor=none;rounded=1;html=1;whiteSpace=wrap;verticalAlign=middle;align=center;;html=1;" parent="qR9BJTGGLoXFY06QcplL-1" vertex="1">
          <mxGeometry x="515.61" y="136.8886567164179" width="180.98" height="18.57611940298507" as="geometry" />
        </mxCell>
        <mxCell id="6b_MJkNo4GDeTMmPDyDw-0" value="FortiManger" style="shape=image;verticalLabelPosition=bottom;verticalAlign=top;imageAspect=0;aspect=fixed;image=data:image/svg+xml,PHN2ZyB4bWxuczp4bGluaz0iaHR0cDovL3d3dy53My5vcmcvMTk5OS94bGluayIgeG1sbnM9Imh0dHA6Ly93d3cudzMub3JnLzIwMDAvc3ZnIiBvdmVyZmxvdz0iaGlkZGVuIiB4bWw6c3BhY2U9InByZXNlcnZlIiBoZWlnaHQ9IjUxIiB3aWR0aD0iNTEiIHZpZXdCb3g9IjAgMCA1MSA1MSI+PGRlZnM+PGNsaXBQYXRoIGlkPSJjbGlwMCI+PHJlY3QgaGVpZ2h0PSI1MSIgd2lkdGg9IjUxIiB5PSIxMzciIHg9IjIzNyIvPjwvY2xpcFBhdGg+PGNsaXBQYXRoIGlkPSJjbGlwMSI+PHJlY3QgaGVpZ2h0PSI0OSIgd2lkdGg9IjQ5IiB5PSIxMzgiIHg9IjIzOCIvPjwvY2xpcFBhdGg+PGNsaXBQYXRoIGlkPSJjbGlwMiI+PHJlY3QgaGVpZ2h0PSI0OSIgd2lkdGg9IjQ5IiB5PSIxMzgiIHg9IjIzOCIvPjwvY2xpcFBhdGg+PGNsaXBQYXRoIGlkPSJjbGlwMyI+PHJlY3QgaGVpZ2h0PSI0OSIgd2lkdGg9IjQ5IiB5PSIxMzgiIHg9IjIzOCIvPjwvY2xpcFBhdGg+PC9kZWZzPjxnIHRyYW5zZm9ybT0idHJhbnNsYXRlKC0yMzcgLTEzNykiIGNsaXAtcGF0aD0idXJsKCNjbGlwMCkiPjxnIGNsaXAtcGF0aD0idXJsKCNjbGlwMSkiPjxnIGNsaXAtcGF0aD0idXJsKCNjbGlwMikiPjxnIGNsaXAtcGF0aD0idXJsKCNjbGlwMykiPjxwYXRoIGZpbGwtb3BhY2l0eT0iMSIgZmlsbC1ydWxlPSJub256ZXJvIiBmaWxsPSIjMDAwMDAwIiBkPSJNMjc4LjczNiAxODUuMDUzIDI0Ni4yNjQgMTg1LjA1M0MyNDUuNjkgMTg1LjA1MyAyNDUuMjI1IDE4NC41ODggMjQ1LjIyNSAxODQuMDE0TDI0NS4yMjUgMTQ0LjczQzI0NS4yMjUgMTQ0LjE1NiAyNDUuNjkgMTQzLjY5IDI0Ni4yNjQgMTQzLjY4OUwyNzguNzM2IDE0My42ODlDMjc5LjMxIDE0My42OSAyNzkuNzc1IDE0NC4xNTYgMjc5Ljc3NSAxNDQuNzNMMjc5Ljc3NSAxODQuMDE0QzI3OS43NzUgMTg0LjU4OCAyNzkuMzEgMTg1LjA1MyAyNzguNzM2IDE4NS4wNTNaTTI0Ny4zMDIgMTgyLjk3NSAyNzcuNjk4IDE4Mi45NzUgMjc3LjY5OCAxNDUuNzY5IDI0Ny4zMDIgMTQ1Ljc2OVoiLz48cGF0aCBmaWxsLW9wYWNpdHk9IjEiIGZpbGwtcnVsZT0ibm9uemVybyIgZmlsbD0iIzAwMDAwMCIgZD0iTTI2Ni44ODQgMTQ1LjYwOCAyNTguMTE2IDE0NS42MDggMjU4LjA4IDE0NC42NTZDMjU4LjA3IDE0NC41ODkgMjU4LjA2NSAxNDQuNTIyIDI1OC4wNjQgMTQ0LjQ1NCAyNTguMDY0IDE0Mi4wMDUgMjYwLjA1IDE0MC4wMTkgMjYyLjUgMTQwLjAxOSAyNjQuOTUgMTQwLjAxOSAyNjYuOTM2IDE0Mi4wMDUgMjY2LjkzNiAxNDQuNDU0IDI2Ni45MzYgMTQ0LjUyMyAyNjYuOTMgMTQ0LjU5MSAyNjYuOTIgMTQ0LjY1OFpNMjYwLjI2NCAxNDMuNTY2IDI2NC43MzYgMTQzLjU2NkMyNjQuMjk1IDE0Mi4zMzEgMjYyLjkzOCAxNDEuNjg3IDI2MS43MDMgMTQyLjEyNyAyNjEuMDMyIDE0Mi4zNjcgMjYwLjUwNCAxNDIuODk1IDI2MC4yNjQgMTQzLjU2NloiLz48cGF0aCBmaWxsLW9wYWNpdHk9IjEiIGZpbGwtcnVsZT0ibm9uemVybyIgZmlsbD0iIzAwMDAwMCIgZD0iTTI2OS4zNTcgMTUwLjg0MiAyNTUuMTQyIDE1MC44NDJDMjU0LjcxMiAxNTAuODQyIDI1NC4zMjggMTUwLjU3MSAyNTQuMTgzIDE1MC4xNjZMMjUyLjQzNyAxNDUuMzE3QzI1Mi4yNDYgMTQ0Ljc4NiAyNTIuNTIyIDE0NC4yMDEgMjUzLjA1MiAxNDQuMDEgMjUzLjU4MyAxNDMuODE5IDI1NC4xNjggMTQ0LjA5NSAyNTQuMzU5IDE0NC42MjVMMjU1Ljg2NSAxNDguOCAyNjguNzA3IDE0OC44IDI3MC42NjcgMTQ0LjUzMUMyNzAuODg2IDE0NC4wMTEgMjcxLjQ4NSAxNDMuNzY4IDI3Mi4wMDQgMTQzLjk4NyAyNzIuNTI0IDE0NC4yMDYgMjcyLjc2NyAxNDQuODA1IDI3Mi41NDggMTQ1LjMyNCAyNzIuNTM5IDE0NS4zNDUgMjcyLjUzIDE0NS4zNjYgMjcyLjUxOSAxNDUuMzg2TDI3MC4yODQgMTUwLjI1QzI3MC4xMTcgMTUwLjYxMSAyNjkuNzU1IDE1MC44NDIgMjY5LjM1NyAxNTAuODQyWiIvPjxwYXRoIGZpbGwtb3BhY2l0eT0iMSIgZmlsbC1ydWxlPSJub256ZXJvIiBmaWxsPSIjOTRCMkM5IiBkPSJNMjUzLjUwOSAxNTYuOTEzIDI3MS40ODggMTU2LjkxMyAyNzEuNDg4IDE1OC45NTUgMjUzLjUwOSAxNTguOTU1WiIvPjxwYXRoIGZpbGwtb3BhY2l0eT0iMSIgZmlsbC1ydWxlPSJub256ZXJvIiBmaWxsPSIjOTRCMkM5IiBkPSJNMjUzLjUwOSAxNjMuMDU2IDI3MS40ODggMTYzLjA1NiAyNzEuNDg4IDE2NS4wOTggMjUzLjUwOSAxNjUuMDk4WiIvPjxwYXRoIGZpbGwtb3BhY2l0eT0iMSIgZmlsbC1ydWxlPSJub256ZXJvIiBmaWxsPSIjOTRCMkM5IiBkPSJNMjUzLjUwOSAxNjkuMTEgMjcxLjQ4OCAxNjkuMTEgMjcxLjQ4OCAxNzEuMTUyIDI1My41MDkgMTcxLjE1MloiLz48L2c+PC9nPjwvZz48L2c+PC9zdmc+" vertex="1" parent="qR9BJTGGLoXFY06QcplL-1">
          <mxGeometry x="575.51" y="346.5" width="80" height="80" as="geometry" />
        </mxCell>
        <mxCell id="3usOkMj8N7TbXHjgFwUk-30" value="" style="aspect=fixed;html=1;points=[];align=center;image;fontSize=12;image=img/lib/azure2/networking/Network_Interfaces.svg;strokeWidth=2;rotation=-180;movable=1;resizable=1;rotatable=1;deletable=1;editable=1;connectable=1;direction=east;container=0;" parent="qR9BJTGGLoXFY06QcplL-1" vertex="1">
          <mxGeometry x="556.6899999999999" y="374" width="35.13" height="31" as="geometry" />
        </mxCell>
      </root>
    </mxGraphModel>
  </diagram>
</mxfile>
